# xmcd CD database file
#
# Track frame offsets:
#	150
#	19885
#	43406
#	71996
#	101300
#	128791
#	148551
#	167429
#	186384
#	216570
#	234797
#
# Disc length: 3348 seconds
#
# Revision: 0
# Processed by: cddbd v1.5.2PL0 Copyright (c) Steve Scherf et al.
# Submitted via: CDex 1.78
#
DISCID=a10d120b
DTITLE=Rebecka Larsdotter - Whirlwind
DYEAR=2016
DGENRE=Jazz
TTITLE0=Peace
TTITLE1=Tomorrow's Yesterday
TTITLE2=Indigo Child
TTITLE3=Like Someone In Love
TTITLE4=Kvar
TTITLE5=Zane's Tune
TTITLE6=Into
TTITLE7=Morning After Pill
TTITLE8=If The Wind Will Allow (aka Wedding Song)
TTITLE9=Hmm
TTITLE10=My Shining Hour
EXTD=YEAR: 2016
EXTT0=
EXTT1=
EXTT2=
EXTT3=
EXTT4=
EXTT5=
EXTT6=
EXTT7=
EXTT8=
EXTT9=
EXTT10=
PLAYORDER=
